HIERARCHY
ROOT Hips
{
	OFFSET 0.00000 0.00000 0.00000
	CHANNELS 6 Xposition Yposition Zposition Zrotation Yrotation Xrotation 
	JOINT LHipJoint
	{
		OFFSET 0 0 0
		CHANNELS 3 Zrotation Yrotation Xrotation
		JOINT LeftUpLeg
		{
			OFFSET 1.44960 -1.75505 0.85172
			CHANNELS 3 Zrotation Yrotation Xrotation
			JOINT LeftLeg
			{
				OFFSET 2.40573 -6.60971 0.00000
				CHANNELS 3 Zrotation Yrotation Xrotation
				JOINT LeftFoot
				{
					OFFSET 2.58773 -7.10974 0.00000
					CHANNELS 3 Zrotation Yrotation Xrotation
					JOINT LeftToeBase
					{
						OFFSET 0.18252 -0.50147 1.77316
						CHANNELS 3 Zrotation Yrotation Xrotation
						End Site
						{
							OFFSET 0.00000 -0.00000 0.92990
						}
					}
				}
			}
		}
	}
	JOINT RHipJoint
	{
		OFFSET 0 0 0
		CHANNELS 3 Zrotation Yrotation Xrotation
		JOINT RightUpLeg
		{
			OFFSET -1.40744 -1.75505 0.85172
			CHANNELS 3 Zrotation Yrotation Xrotation
			JOINT RightLeg
			{
				OFFSET -2.43714 -6.69600 0.00000
				CHANNELS 3 Zrotation Yrotation Xrotation
				JOINT RightFoot
				{
					OFFSET -2.51650 -6.91404 0.00000
					CHANNELS 3 Zrotation Yrotation Xrotation
					JOINT RightToeBase
					{
						OFFSET -0.25383 -0.69740 1.96384
						CHANNELS 3 Zrotation Yrotation Xrotation
						End Site
						{
							OFFSET -0.00000 -0.00000 1.04244
						}
					}
				}
			}
		}
	}
	JOINT LowerBack
	{
		OFFSET 0 0 0
		CHANNELS 3 Zrotation Yrotation Xrotation
		JOINT Spine
		{
			OFFSET 0.00579 2.14458 -0.24367
			CHANNELS 3 Zrotation Yrotation Xrotation
			JOINT Spine1
			{
				OFFSET 0.05899 2.16316 -0.04515
				CHANNELS 3 Zrotation Yrotation Xrotation
				JOINT Neck
				{
					OFFSET 0 0 0
					CHANNELS 3 Zrotation Yrotation Xrotation
					JOINT Neck1
					{
						OFFSET -0.01650 1.59577 0.24841
						CHANNELS 3 Zrotation Yrotation Xrotation
						JOINT Head
						{
							OFFSET -0.01016 1.63072 -0.17782
							CHANNELS 3 Zrotation Yrotation Xrotation
							End Site
							{
								OFFSET -0.00250 1.64111 -0.08717
							}
						}
					}
				}
				JOINT LeftShoulder
				{
					OFFSET 0 0 0
					CHANNELS 3 Zrotation Yrotation Xrotation
					JOINT LeftArm
					{
						OFFSET 3.17745 0.95174 -0.45729
						CHANNELS 3 Zrotation Yrotation Xrotation
						JOINT LeftForeArm
						{
							OFFSET 4.93485 -0.00000 0.00000
							CHANNELS 3 Zrotation Yrotation Xrotation
							JOINT LeftHand
							{
								OFFSET 3.41719 -0.00000 -0.00000
								CHANNELS 3 Zrotation Yrotation Xrotation
								JOINT LeftFingerBase
								{
									OFFSET 0 0 0
									CHANNELS 3 Zrotation Yrotation Xrotation
									JOINT LeftHandIndex1
									{
										OFFSET 0.62410 -0.00000 -0.00000
										CHANNELS 3 Zrotation Yrotation Xrotation
										End Site
										{
											OFFSET 0.50317 -0.00000 -0.00000
										}
									}
								}
								JOINT LThumb
								{
									OFFSET 0 0 0
									CHANNELS 3 Zrotation Yrotation Xrotation
									End Site
									{
										OFFSET 0.51085 -0.00000 0.51085
									}
								}
							}
						}
					}
				}
				JOINT RightShoulder
				{
					OFFSET 0 0 0
					CHANNELS 3 Zrotation Yrotation Xrotation
					JOINT RightArm
					{
						OFFSET -2.87924 1.13038 -0.75204
						CHANNELS 3 Zrotation Yrotation Xrotation
						JOINT RightForeArm
						{
							OFFSET -5.22034 -0.00000 0.00000
							CHANNELS 3 Zrotation Yrotation Xrotation
							JOINT RightHand
							{
								OFFSET -3.41809 -0.00000 -0.00000
								CHANNELS 3 Zrotation Yrotation Xrotation
								JOINT RightFingerBase
								{
									OFFSET 0 0 0
									CHANNELS 3 Zrotation Yrotation Xrotation
									JOINT RightHandIndex1
									{
										OFFSET -0.77534 -0.00000 -0.00000
										CHANNELS 3 Zrotation Yrotation Xrotation
										End Site
										{
											OFFSET -0.62510 -0.00000 -0.00000
										}
									}
								}
								JOINT RThumb
								{
									OFFSET 0 0 0
									CHANNELS 3 Zrotation Yrotation Xrotation
									End Site
									{
										OFFSET -0.63464 -0.00000 0.63464
									}
								}
							}
						}
					}
				}
			}
		}
	}
}
MOTION
Frames: 16
Frame Time: .0083333
-0.6163 17.6059 10.4314 0 0 0 0 0 0 -21 0 0 0 0 0 0 0 0 0 0 0 0 0 0 21 0 0 0 0 0 0 0 0 0 0 0 0 0 0 0 0 0 0 0 0 0 0 -16 0 0 21 0 0 11 0 0 0 -8 0 0 0 0 0 0 0 0 0 0 0 0 0 0 0 0 0 0 0 0 8 0 0 0 0 0 0 0 0 0 0 0 0 0 0 0 0 0
-0.6163 17.6059 10.4314 -4.3519 1.5648 9.1795 0.0000 0.0000 0.0000 -14.0789 -5.6111 -6.3471 0.7832 5.6499 15.7719 0.8520 -0.0559 -17.4309 0.0554 1.5189 4.1778 0.0000 0.0000 0.0000 25.1650 1.0690 -3.7905 -0.1336 -2.3558 6.4899 -0.0976 -8.3218 -13.6165 -0.3027 -3.5377 9.7795 0.3545 -0.7521 -5.7309 3.4149 -1.0333 -3.3135 3.2602 -0.4937 -0.1420 -0.1789 -0.7463 -17.1181 -0.1207 -0.9624 19.9637 -0.1343 -0.4782 9.0972 0.0000 0.0000 0.0000 -90.9685 3.7606 24.5877 14.7655 -23.8184 -3.1306 -0.0000 -0.0000 8.8797 -1.9759 45.3947 -1.4070 -7.1250 0.0000 -0.0000 -55.9357 67.2674 -34.0059 0.0000 0.0000 0.0000 84.7988 -1.6795 19.1934 -13.4304 21.9147 -2.6118 0.0000 -0.0000 -12.9439 -17.0552 16.0606 -4.8512 7.1250 -0.0000 -0.0000 7.1355 -13.3157 5.3427
-0.6232 17.6121 10.4220 -4.1515 1.4959 9.2226 0.0000 0.0000 0.0000 -14.2833 -5.5098 -6.4597 0.7785 5.6332 15.7237 0.8388 -0.0082 -17.3115 0.0570 1.5410 4.2388 0.0000 0.0000 0.0000 24.9700 1.1581 -3.9174 -0.1377 -2.3913 6.5883 -0.1072 -8.3068 -13.7552 -0.3431 -3.7636 10.4127 0.0333 -0.7756 -5.7110 3.4037 -1.0494 -3.3021 3.4292 -0.4979 -0.1351 -0.1703 -0.7531 -17.2029 -0.1620 -0.9645 20.0029 -0.1507 -0.4830 9.1260 0.0000 0.0000 0.0000 -91.0109 3.6714 24.7714 14.7201 -23.7548 -3.1123 -0.0000 -0.0000 8.0807 -0.5316 45.0894 -0.3765 -7.1250 0.0000 -0.0000 -54.1029 67.5446 -32.9435 0.0000 0.0000 0.0000 84.7648 -1.7705 19.0724 -13.6119 22.1772 -2.6799 0.0000 -0.0000 -12.3930 -16.5555 15.6099 -4.5734 7.1250 -0.0000 -0.0000 7.4593 -13.8284 5.5081
-0.6245 17.6131 10.4107 -4.2830 1.3482 9.1860 0.0000 0.0000 0.0000 -14.1498 -5.4418 -6.4897 0.7786 5.6336 15.7249 0.8224 0.1564 -17.1988 0.0576 1.5491 4.2611 0.0000 0.0000 0.0000 25.0983 1.3342 -3.9184 -0.1396 -2.4083 6.6355 -0.1028 -8.3423 -13.7260 -0.3519 -3.8111 10.5458 0.1060 -0.7495 -5.6452 3.4597 -1.0206 -3.1877 3.4476 -0.4855 -0.0558 -0.3144 -0.7252 -17.3862 -0.0041 -0.9219 19.9622 -0.0679 -0.4563 9.1470 0.0000 -0.0000 0.0000 -90.9826 3.4245 24.9830 14.6706 -23.6852 -3.0924 -0.0000 -0.0000 7.8534 -0.4168 45.1831 -0.2957 -7.1250 0.0000 -0.0000 -54.1876 67.6361 -33.1094 0.0000 -0.0000 0.0000 84.7804 -1.5904 19.1364 -13.6218 22.1914 -2.6836 0.0000 -0.0000 -12.6801 -16.4727 14.6872 -4.2875 7.1250 -0.0000 -0.0000 7.4972 -14.7834 5.3830
-0.6290 17.6139 10.4056 -4.2292 1.3584 9.2006 0.0000 0.0000 0.0000 -14.1840 -5.4940 -6.5257 0.7788 5.6344 15.7273 0.8118 0.1846 -17.0978 0.0539 1.4981 4.1204 0.0000 0.0000 0.0000 25.0594 1.3400 -3.9817 -0.1417 -2.4264 6.6855 -0.1043 -8.3407 -13.7499 -0.3583 -3.8454 10.6420 0.0080 -0.7549 -5.6716 3.4558 -1.0243 -3.1681 3.4981 -0.4867 -0.0192 -0.5193 -0.7552 -17.2804 0.2106 -0.9571 19.8981 0.0357 -0.4646 9.1079 0.0000 -0.0000 0.0000 -90.8786 3.4560 24.9981 14.9383 -24.0600 -3.2007 -0.0000 -0.0000 8.4843 -3.3088 46.0023 -2.3815 -7.1250 0.0000 -0.0000 -58.2434 67.1878 -35.6808 0.0000 -0.0000 0.0000 84.7439 -1.5649 19.0590 -13.5938 22.1511 -2.6731 0.0000 -0.0000 -12.5475 -16.8378 15.8306 -4.7195 7.1250 -0.0000 -0.0000 7.2750 -13.5740 5.4091
-0.6300 17.6152 10.3990 -4.1871 1.2666 9.1756 0.0000 0.0000 0.0000 -14.2375 -5.4738 -6.5301 0.7804 5.6399 15.7429 0.7997 0.2587 -16.9975 0.0517 1.4678 4.0369 0.0000 0.0000 0.0000 25.0024 1.4146 -3.9497 -0.1409 -2.4190 6.6652 -0.1005 -8.3660 -13.7189 -0.3607 -3.8581 10.6779 -0.0271 -0.7686 -5.7794 3.4023 -1.0470 -3.0257 3.4586 -0.5009 0.1886 -0.5304 -0.7350 -17.2232 0.3410 -0.9559 19.7634 0.0828 -0.4506 9.0517 -0.0000 0.0000 0.0000 -90.8436 3.2044 24.6546 14.8099 -23.8807 -3.1486 -0.0000 -0.0000 8.9596 -3.3831 45.7636 -2.4253 -7.1250 0.0000 -0.0000 -57.8362 67.0333 -35.1827 -0.0000 0.0000 0.0000 84.8408 -1.3567 19.0627 -13.5432 22.0779 -2.6540 0.0000 -0.0000 -12.4211 -16.7222 16.0991 -4.7624 7.1250 -0.0000 -0.0000 7.3595 -13.3098 5.5142
-0.6338 17.6158 10.3853 -4.2658 1.1474 9.2071 0.0000 0.0000 0.0000 -14.1290 -5.4474 -6.6119 0.7773 5.6290 15.7116 0.7796 0.3573 -16.8196 0.0500 1.4434 3.9696 0.0000 0.0000 0.0000 25.1030 1.5979 -4.0537 -0.1453 -2.4563 6.7686 -0.0987 -8.3782 -13.7041 -0.3618 -3.8641 10.6946 0.0089 -0.7341 -5.6844 3.4187 -1.0033 -2.9515 3.4582 -0.4801 0.2092 -0.5807 -0.7710 -17.4297 0.3760 -0.9991 19.8173 0.0967 -0.4703 9.1086 -0.0000 0.0000 0.0000 -90.7405 3.0740 24.8794 14.9533 -24.0809 -3.2068 -0.0000 -0.0000 8.7562 -3.8192 46.1076 -2.7542 -7.1250 0.0000 -0.0000 -58.8705 67.0843 -36.0448 -0.0000 0.0000 0.0000 84.7958 -1.2288 19.4465 -13.6707 22.2620 -2.7021 0.0000 -0.0000 -12.9690 -16.5710 15.5542 -4.5620 7.1250 -0.0000 -0.0000 7.4477 -13.8841 5.4904
-0.6339 17.6156 10.3900 -4.2475 1.1674 9.2020 0.0000 0.0000 0.0000 -14.1523 -5.4431 -6.5638 0.7742 5.6182 15.6804 0.7694 0.3766 -16.7165 0.0467 1.3953 3.8373 0.0000 0.0000 0.0000 25.0708 1.5765 -4.0676 -0.1480 -2.4789 6.8313 -0.1021 -8.3595 -13.7361 -0.3495 -3.7984 10.5102 0.0463 -0.7425 -5.7994 3.3942 -1.0200 -2.8961 3.4089 -0.4902 0.3303 -0.6142 -0.8277 -17.3304 0.3236 -1.0572 19.8256 0.0773 -0.5061 9.0935 -0.0000 0.0000 0.0000 -90.6941 3.1489 25.0411 15.0522 -24.2187 -3.2473 -0.0000 -0.0000 8.6889 -3.2368 45.8149 -2.3223 -7.1250 0.0000 -0.0000 -57.8147 67.1074 -35.2541 -0.0000 0.0000 0.0000 84.8319 -1.1665 19.3311 -13.5960 22.1542 -2.6739 0.0000 -0.0000 -12.8608 -16.5786 15.4400 -4.5317 7.1250 -0.0000 -0.0000 7.4400 -14.0006 5.4662
-0.6362 17.6157 10.3800 -4.1990 1.0955 9.1831 0.0000 0.0000 0.0000 -14.2011 -5.4637 -6.5746 0.7767 5.6269 15.7058 0.7582 0.4799 -16.6349 0.0436 1.3471 3.7044 0.0000 0.0000 0.0000 25.0169 1.6508 -4.0917 -0.1498 -2.4939 6.8728 -0.0979 -8.3751 -13.6869 -0.3383 -3.7374 10.3391 -0.0152 -0.7750 -5.6823 3.3612 -1.0594 -2.8435 3.4079 -0.5101 0.3221 -0.4428 -0.8066 -17.3676 0.1679 -1.0392 19.8589 -0.0024 -0.5020 9.1098 0.0000 -0.0000 0.0000 -90.6270 2.9433 24.9342 15.0360 -24.1962 -3.2407 -0.0000 -0.0000 8.5832 -3.1578 46.0928 -2.2762 -7.1250 0.0000 -0.0000 -58.2983 67.2847 -35.8385 0.0000 -0.0000 0.0000 84.8217 -1.0860 19.6356 -13.6676 22.2575 -2.7009 0.0000 -0.0000 -12.9179 -16.5283 15.0948 -4.4190 7.1250 -0.0000 -0.0000 7.4669 -14.3598 5.4289
-0.6398 17.6156 10.3766 -4.1858 1.0784 9.1657 0.0000 0.0000 0.0000 -14.2025 -5.4428 -6.5667 0.7763 5.6256 15.7018 0.7553 0.4878 -16.6057 0.0372 1.2454 3.4242 0.0000 0.0000 0.0000 25.0223 1.6609 -4.0747 -0.1500 -2.4961 6.8787 -0.0978 -8.3684 -13.6767 -0.3338 -3.7132 10.2712 -0.0460 -0.7819 -5.5734 3.3618 -1.0657 -2.8242 3.4267 -0.5129 0.2824 -0.4317 -0.8307 -17.4457 0.1247 -1.0659 19.9460 -0.0230 -0.5183 9.1540 0.0000 0.0000 0.0000 -90.5881 3.0788 25.0817 15.1751 -24.3894 -3.2979 -0.0000 -0.0000 8.4041 -2.3224 45.8518 -1.6668 -7.1250 0.0000 -0.0000 -57.1267 67.4160 -35.0874 0.0000 0.0000 0.0000 84.8343 -0.9924 19.4977 -13.6247 22.1956 -2.6847 0.0000 -0.0000 -12.7037 -16.5292 14.9285 -4.3718 7.1250 -0.0000 -0.0000 7.4632 -14.5305 5.3988
-0.6453 17.6165 10.3648 -4.2466 1.0116 9.2390 0.0000 0.0000 0.0000 -14.1042 -5.4720 -6.7216 0.7810 5.6423 15.7501 0.7544 0.5364 -16.6149 0.0297 1.1128 3.0592 0.0000 0.0000 0.0000 25.1131 1.7752 -4.1364 -0.1466 -2.4672 6.7986 -0.0892 -8.4085 -13.5853 -0.3360 -3.7249 10.3038 -0.0382 -0.7450 -5.4407 3.4067 -1.0131 -2.8863 3.4740 -0.4847 0.1420 -0.5396 -0.8618 -17.4385 0.1991 -1.0968 20.0125 0.0162 -0.5326 9.1769 -0.0000 -0.0000 0.0000 -90.6385 3.0116 25.0386 15.1686 -24.3805 -3.2952 -0.0000 -0.0000 8.6157 -3.3871 45.9478 -2.4357 -7.1250 0.0000 -0.0000 -58.2005 67.1333 -35.5828 -0.0000 -0.0000 0.0000 84.8019 -1.0348 19.5458 -13.5729 22.1208 -2.6651 0.0000 -0.0000 -13.0951 -16.7889 15.3268 -4.5596 7.1250 -0.0000 -0.0000 7.2958 -14.0968 5.3435
-0.6457 17.6162 10.3658 -4.2454 0.9433 9.1577 0.0000 0.0000 0.0000 -14.1254 -5.3858 -6.6632 0.7859 5.6594 15.7993 0.7633 0.5286 -16.7089 0.0228 0.9755 2.6813 0.0000 0.0000 0.0000 25.1071 1.7677 -3.9404 -0.1396 -2.4081 6.6349 -0.0859 -8.4239 -13.5511 -0.3404 -3.7490 10.3716 -0.0314 -0.7410 -5.3412 3.4096 -1.0059 -2.9010 3.4748 -0.4805 0.0710 -0.5935 -0.8357 -17.3090 0.3089 -1.0723 20.0421 0.0665 -0.5132 9.1644 0.0000 -0.0000 0.0000 -90.5927 3.1366 25.1351 15.2204 -24.4523 -3.3167 -0.0000 -0.0000 8.3342 -2.5507 46.0932 -1.8383 -7.1250 0.0000 -0.0000 -57.7979 67.4770 -35.6772 0.0000 -0.0000 0.0000 84.7929 -1.2485 19.6322 -13.7533 22.3809 -2.7335 0.0000 -0.0000 -12.8035 -16.5947 14.5845 -4.2915 7.1250 -0.0000 -0.0000 7.4127 -14.8780 5.3062
-0.6359 17.6177 10.3571 -4.3270 1.1131 9.1069 0.0000 0.0000 0.0000 -14.0561 -5.3514 -6.6913 0.7918 5.6801 15.8589 0.7693 0.3675 -16.7119 0.0177 0.8580 2.3581 0.0000 0.0000 0.0000 25.1487 1.5656 -3.8673 -0.1321 -2.3428 6.4539 -0.0798 -8.4592 -13.4938 -0.3343 -3.7160 10.2789 0.2505 -0.7874 -5.1531 3.4017 -1.0761 -2.9083 3.3060 -0.5178 -0.0419 -0.6686 -0.8062 -17.3771 0.4366 -1.0402 20.1099 0.1266 -0.4894 9.2014 -0.0000 0.0000 0.0000 -90.5840 3.1058 25.1000 15.2197 -24.4512 -3.3163 -0.0000 -0.0000 8.5032 -2.9370 46.2135 -2.1212 -7.1250 0.0000 -0.0000 -58.3577 67.4201 -36.0454 -0.0000 0.0000 0.0000 84.7389 -1.3202 19.8688 -13.7824 22.4227 -2.7445 0.0000 -0.0000 -12.9660 -16.6864 14.9466 -4.4209 7.1250 -0.0000 -0.0000 7.3571 -14.4973 5.3260
-0.6380 17.6180 10.3555 -4.3311 1.0805 9.1058 0.0000 0.0000 0.0000 -14.0539 -5.4101 -6.6895 0.7971 5.6987 15.9126 0.7696 0.4872 -16.7603 0.0153 0.7981 2.1935 0.0000 0.0000 0.0000 25.1627 1.5592 -3.7495 -0.1238 -2.2686 6.2486 -0.0733 -8.4928 -13.4276 -0.3367 -3.7290 10.3155 0.2696 -0.7729 -5.1545 3.4051 -1.0590 -2.8650 3.2991 -0.5101 0.0022 -0.7662 -0.7882 -17.4941 0.5304 -1.0095 20.1646 0.1785 -0.4717 9.2427 0.0000 -0.0000 0.0000 -90.5517 2.9251 25.1793 15.0070 -24.1559 -3.2288 -0.0000 -0.0000 8.4022 -2.1284 45.7375 -1.5246 -7.1250 0.0000 -0.0000 -56.7379 67.4135 -34.7860 0.0000 -0.0000 0.0000 84.7454 -1.2952 19.7448 -13.8407 22.5065 -2.7668 0.0000 -0.0000 -12.9628 -16.6731 14.6310 -4.3263 7.1250 -0.0000 -0.0000 7.3602 -14.8230 5.2767
-0.6425 17.6180 10.3529 -4.3474 1.0657 9.0843 0.0000 0.0000 0.0000 -14.0298 -5.4647 -6.6315 0.7934 5.6858 15.8753 0.7623 0.6170 -16.7317 0.0145 0.7764 2.1337 0.0000 0.0000 0.0000 25.2012 1.5724 -3.7344 -0.1241 -2.2705 6.2538 -0.0746 -8.4861 -13.4399 -0.3359 -3.7247 10.3033 0.2170 -0.8015 -5.0877 3.4392 -1.0948 -2.8270 3.3628 -0.5276 0.0077 -0.7136 -0.7276 -17.6154 0.4900 -0.9299 20.2098 0.1658 -0.4348 9.2796 0.0000 0.0000 0.0000 -90.5228 2.8500 25.1673 14.9834 -24.1229 -3.2191 -0.0000 -0.0000 8.4838 -2.2045 45.7022 -1.5782 -7.1250 0.0000 -0.0000 -56.7317 67.3696 -34.7302 0.0000 0.0000 0.0000 84.6965 -1.3242 20.0638 -13.8469 22.5154 -2.7692 0.0000 -0.0000 -13.5054 -16.7544 14.9120 -4.4299 7.1250 -0.0000 -0.0000 7.3103 -14.5265 5.2870
-0.6441 17.6188 10.3443 -4.4275 1.0330 9.1522 0.0000 0.0000 0.0000 -13.9285 -5.4279 -6.7329 0.7884 5.6681 15.8245 0.7533 0.6410 -16.6429 0.0146 0.7792 2.1414 0.0000 0.0000 0.0000 25.2886 1.6821 -3.8825 -0.1285 -2.3111 6.3662 -0.0756 -8.4818 -13.4516 -0.3318 -3.7019 10.2396 0.3612 -0.8029 -5.1323 3.4183 -1.1049 -2.7946 3.2582 -0.5348 0.0635 -0.6131 -0.6894 -17.6087 0.4645 -0.8987 20.1476 0.1445 -0.4154 9.2559 0.0000 -0.0000 0.0000 -90.3950 2.7340 25.2564 14.9299 -24.0484 -3.1973 -0.0000 -0.0000 8.2491 -2.1619 45.5690 -1.5442 -7.1250 0.0000 -0.0000 -56.4340 67.3080 -34.4314 0.0000 -0.0000 0.0000 84.8047 -1.1552 19.8493 -13.8239 22.4823 -2.7604 0.0000 -0.0000 -13.2057 -16.5192 14.5434 -4.2592 7.1250 -0.0000 -0.0000 7.4632 -14.9269 5.3352
